<?xml version="1.0" standalone="no"?><!DOCTYPE svg PUBLIC "-//W3C//DTD SVG 1.1//EN" "http://www.w3.org/Graphics/SVG/1.1/DTD/svg11.dtd"><svg t="1652105356241" class="icon" viewBox="0 0 1024 1024" version="1.1" xmlns="http://www.w3.org/2000/svg" p-id="3185" xmlns:xlink="http://www.w3.org/1999/xlink" width="128" height="128"><defs><style type="text/css">@font-face { font-family: feedback-iconfont; src: url("//at.alicdn.com/t/font_1031158_u69w8yhxdu.woff2?t=1630033759944") format("woff2"), url("//at.alicdn.com/t/font_1031158_u69w8yhxdu.woff?t=1630033759944") format("woff"), url("//at.alicdn.com/t/font_1031158_u69w8yhxdu.ttf?t=1630033759944") format("truetype"); }
</style></defs><path d="M725.333333 981.333333H298.666667l-42.666667-298.666666h512zM213.333333 554.666667h597.333334v128H213.333333z" fill="#FF8B00" p-id="3186"></path><path d="M533.333333 554.666667h-42.666666V192l42.666666-42.666667z" fill="#1DDD4B" p-id="3187"></path><path d="M525.824 429.12a170.069333 170.069333 0 0 0 0.896 62.058667c9.664 3.584 19.754667 6.421333 30.272 8.256a170.666667 170.666667 0 0 0 197.162667-139.221334 170.069333 170.069333 0 0 0-0.896-62.058666 171.968 171.968 0 0 0-30.272-8.256 170.666667 170.666667 0 0 0-197.162667 139.221333zM498.176 450.453333a170.069333 170.069333 0 0 1-0.896 62.058667 171.968 171.968 0 0 1-30.272 8.256 170.666667 170.666667 0 0 1-197.162667-139.221333 170.069333 170.069333 0 0 1 0.896-62.058667 171.968 171.968 0 0 1 30.272-8.256 170.666667 170.666667 0 0 1 197.162667 139.221333zM490.666667 202.666667c0 6.72 0.64 13.290667 1.578666 19.754666 6.464 0.938667 13.034667 1.578667 19.754667 1.578667A138.666667 138.666667 0 0 0 650.666667 85.333333c0-6.72-0.64-13.290667-1.578667-19.754666A137.109333 137.109333 0 0 0 629.333333 64 138.666667 138.666667 0 0 0 490.666667 202.666667z" fill="#1DDD4B" p-id="3188"></path><path d="M362.666667 106.666667c-6.72 0-13.290667 0.64-19.754667 1.578666A137.109333 137.109333 0 0 0 341.333333 128a138.666667 138.666667 0 0 0 138.666667 138.666667c6.72 0 13.290667-0.64 19.754667-1.578667 0.938667-6.464 1.578667-13.034667 1.578666-19.754667A138.666667 138.666667 0 0 0 362.666667 106.666667z" fill="#1DDD4B" p-id="3189"></path></svg>