<?xml version="1.0" standalone="no"?><!DOCTYPE svg PUBLIC "-//W3C//DTD SVG 1.1//EN" "http://www.w3.org/Graphics/SVG/1.1/DTD/svg11.dtd"><svg t="1652105163796" class="icon" viewBox="0 0 1024 1024" version="1.1" xmlns="http://www.w3.org/2000/svg" p-id="2639" xmlns:xlink="http://www.w3.org/1999/xlink" width="200" height="200"><defs><style type="text/css">@font-face { font-family: feedback-iconfont; src: url("//at.alicdn.com/t/font_1031158_u69w8yhxdu.woff2?t=1630033759944") format("woff2"), url("//at.alicdn.com/t/font_1031158_u69w8yhxdu.woff?t=1630033759944") format("woff"), url("//at.alicdn.com/t/font_1031158_u69w8yhxdu.ttf?t=1630033759944") format("truetype"); }
</style></defs><path d="M512 1024C229.233778 1024 0 794.766222 0 512S229.233778 0 512 0s512 229.233778 512 512-229.233778 512-512 512z m-19.740444-661.219556c22.826667 22.855111 13.127111 65.621333-12.686223 95.786667 0 0 46.222222-16.113778 56.888889-60.273778 10.695111-44.273778-11.022222-59.875556-33.493333-85.546666-22.513778-25.813333-20.48-72.533333 1.493333-85.191111 0 0-47.146667 3.911111-55.964444 49.635555-8.746667 45.696 20.977778 62.72 43.733333 85.589333h0.028445z m78.336 69.077334s52.053333-26.24 45.269333-66.133334c-6.798222-39.822222-56.888889-59.804444-46.222222-87.495111 10.666667-27.733333 13.582222-33.109333 13.582222-33.109333s-75.889778 46.222222-28.16 89.457778c47.644444 43.278222 43.164444 59.377778 15.530667 97.28z m-167.352889 24.32s52.010667-26.282667 45.184-66.133334c-6.755556-39.936-56.888889-59.832889-46.222223-87.537777 10.837333-27.733333 13.724444-33.066667 13.724445-33.066667s-75.832889 46.222222-28.231111 89.429333c47.644444 43.292444 43.306667 59.363556 15.530666 97.28v0.028445zM279.893333 796.444444h428.657778c21.048889 0 38.115556-18.019556 38.115556-40.291555H241.777778C241.777778 778.424889 258.844444 796.444444 279.893333 796.444444z m512.924445-237.297777c-8.277333-59.377778-84.124444-62.222222-84.124445-62.222223 0-18.986667-25.244444-30.108444-25.244444-30.108444h-362.808889c-23.324444 0-26.709333 32.526222-26.709333 32.526222 4.878222 182.826667 115.2 243.171556 115.2 243.171556h190.151111c27.207111-19.911111 64.711111-77.866667 64.711111-77.866667 5.873778 1.991111 46.222222-0.497778 62.236444-3.911111 15.985778-3.384889 74.808889-42.311111 66.588445-101.589333z m-368.099556 151.751111c-92.344889-67.057778-83.143111-208.64-83.143111-208.64h51.100445c-28.231111 80.256 27.662222 181.404444 35.441777 195.527111 7.822222 14.108444-3.413333 13.112889-3.413333 13.112889z m297.059556-83.2c-23.822222 14.193778-41.386667 4.906667-41.386667 4.906666 24.817778-34.517333 26.695111-101.148444 26.695111-101.148444 4.380444 1.422222 7.822222-16.497778 38.940445 15.075556 31.189333 31.573333-0.355556 67.086222-24.248889 81.166222z" fill="#D7A26A" p-id="2640"></path></svg>